# xmcd
#
# Track frame offsets: 
#        183
#        19105
#        29680
#        47573
#        66503
#        81180
#        97110
#        120720
#        137305
#        156833
#        166708
#        180825
#
# Disc length: 2582 seconds
#
# Revision: 3
# Processed by: cddbd v1.5.2PL0 Copyright (c) Steve Scherf et al.
# Submitted via: ExactAudioCopyFreeDBPlugin 1.0
#
DISCID=940a140c
DTITLE=JAN SPÁLENÝ and PETR KALANDRA - Blues In Mind
DYEAR=1984
DGENRE=Blues
TTITLE0=Thinking Of Only You, Little Baby Blue Eyes
TTITLE1=Turpentine Blues
TTITLE2=Oh Boy
TTITLE3=How Have You Been, My Darling Children
TTITLE4=July Is Here
TTITLE5=St. James Infirmary Blues
TTITLE6=White Room
TTITLE7=There Must Be Some Kinda Catch
TTITLE8=How I Grew Up
TTITLE9=Boiler Blues
TTITLE10=San Francisco Bay Blues
TTITLE11=Basin Street Blues
EXTD=
EXTT0=
EXTT1=
EXTT2=
EXTT3=
EXTT4=
EXTT5=
EXTT6=
EXTT7=
EXTT8=
EXTT9=
EXTT10=
EXTT11=
PLAYORDER=
